<?xml version="1.0" encoding="UTF-8" standalone="no"?>
<svg
   xmlns:dc="http://purl.org/dc/elements/1.1/"
   xmlns:cc="http://creativecommons.org/ns#"
   xmlns:rdf="http://www.w3.org/1999/02/22-rdf-syntax-ns#"
   xmlns:svg="http://www.w3.org/2000/svg"
   xmlns="http://www.w3.org/2000/svg"
   xmlns:sodipodi="http://sodipodi.sourceforge.net/DTD/sodipodi-0.dtd"
   xmlns:inkscape="http://www.inkscape.org/namespaces/inkscape"
   height="420mm"
   version="1.1"
   viewBox="0 0 297 420"
   width="297mm"
   id="svg943"
   sodipodi:docname="apple.svg"
   inkscape:version="0.92.3 (unknown)">
  <metadata
     id="metadata947">
    <rdf:RDF>
      <cc:Work
         rdf:about="">
        <dc:format>image/svg+xml</dc:format>
        <dc:type
           rdf:resource="http://purl.org/dc/dcmitype/StillImage" />
        <dc:title></dc:title>
      </cc:Work>
    </rdf:RDF>
  </metadata>
  <sodipodi:namedview
     pagecolor="#ffffff"
     bordercolor="#666666"
     borderopacity="1"
     objecttolerance="10"
     gridtolerance="10"
     guidetolerance="10"
     inkscape:pageopacity="0"
     inkscape:pageshadow="2"
     inkscape:window-width="1855"
     inkscape:window-height="1056"
     id="namedview945"
     showgrid="false"
     inkscape:zoom="0.2973261"
     inkscape:cx="831.14373"
     inkscape:cy="1466.81"
     inkscape:window-x="65"
     inkscape:window-y="24"
     inkscape:window-maximized="1"
     inkscape:current-layer="svg943" />
  <defs
     id="defs933" />
  <path
     d="m 176.56898,67.214278 0.66633,0.66632 0.62322,0.7068 0.57762,0.74453 0.52978,0.7793 0.47983,0.811 0.42802,0.83951 0.37449,0.86472 0.3195,0.8865 0.26325,0.90481 0.20597,0.91953 0.14786,0.93066 0.0892,0.93809 0.0301,0.94183 -0.029,0.94188 -0.0881,0.9382 -0.14675,0.93083 -0.20483,0.91979 -0.2621,0.90514 -0.31833,0.88693 -0.37329,0.86522 -0.42678,0.84015 -0.47857,0.81175 -0.52848,0.78018 -0.5763,0.74556 -0.62186,0.70799 -0.66497,0.66767 -0.70546,0.62473 -0.74319,0.57936 -0.77799,0.5317 -0.80973,0.48198 -0.83829,0.43041 -0.86355,0.37715 -0.88544,0.32245 -0.90385,0.26651 -0.91873,0.20953 -0.93002,0.15176 -0.93769,0.0934 -0.94168,0.0347 -0.94201,-0.0241 -0.93868,-0.0828 -0.93169,-0.14118 -0.92107,-0.19898 -0.90689,-0.25598 -0.88918,-0.31197 -0.86805,-0.36671 -0.84354,-0.42001 -0.81579,-0.47165 -0.78489,-0.52146 -0.75098,-0.56922 -0.71417,-0.61476 -0.67462,-0.65792 -0.63248,-0.69853 -0.58793,-0.73642 -0.54112,-0.77147 -0.49226,-0.80352 -0.44152,-0.83249 -0.38914,-0.85821 -0.33527,-0.88067 -0.28017,-0.89971 -0.22402,-0.9153 -0.16705,-0.9274 -0.10947,-0.93595 -0.0515,-0.94091 0.007,-0.94229 0.0647,-0.9401 0.12251,-0.93433 0.17983,-0.92501 0.23642,-0.91217 0.2921,-0.89592 0.34659,-0.87626 0.39978,-0.85332 0.4514,-0.82718 0.50128,-0.79792 0.54925,-0.7657 0.59512,-0.73062 0.63873,-0.69281 0.67993,-0.65245 0.71853,-0.60965 0.75444,-0.56461 0.78752,-0.51749 0.81762,-0.46846 0.84467,-0.41775 0.86855,-0.36551 0.88918,-0.31196 0.90652,-0.25731 0.92047,-0.20174 0.93103,-0.14548 0.93813,-0.0887 0.9418,-0.0317 0.94197,0.0254 0.93872,0.0824 0.93201,0.13904 0.9219,0.19512 0.90842,0.25045 0.89167,0.3048 0.87167,0.358 0.84853,0.40984 0.82233,0.46016 0.79318,0.50875 0.7612,0.55548 0.82298,0.49198 0.79883,0.54694 0.77108,0.60068 0.73979,0.65296 0.70501,0.7036 0.66705,0.75218 0.62578,0.79871 0.58143,0.8429 0.53414,0.88453 0.48407,0.92342 0.43139,0.95941 0.37629,0.99229 0.31897,1.02196 0.2627,1.04742 0.20189,1.07026 0.13916,1.08957 0.075,1.10513 0.01,1.11691 -0.0566,1.1248 -0.12366,1.12876 -0.19115,1.12871 -0.25884,1.12465 -0.32651,1.11658 -0.3939,1.10448 -0.46078,1.08838 -0.52689,1.06831 -0.58948,1.04571 -0.65284,1.01829 -0.71531,0.98678 -0.77613,0.95156 -0.83508,0.91274 -0.89196,0.87044 -0.94657,0.82475 -0.99869,0.77585 -1.04813,0.72391 -1.09473,0.66906 -1.13833,0.61149 -1.17877,0.551392 -1.21593,0.48892 -1.24875,0.42671 -1.2787,0.36105 -1.30528,0.29274 -1.32815,0.22286 -1.34722,0.15161 -1.36244,0.0792 -1.37375,0.006 -1.3811,-0.0682 -1.38446,-0.14265 -1.38384,-0.21736 -1.37924,-0.29209 -1.37066,-0.36661 -1.35814,-0.44074 -1.34245,-0.51204 -1.32265,-0.583512 -1.29856,-0.65507 -1.27075,-0.72542 -1.23929,-0.79436 -1.20427,-0.86172 -1.16578,-0.92731 -1.12398,-0.99091 -1.0789,-1.05245 -1.03084,-1.11159 -0.97978,-1.16835 -0.92593,-1.22253 -0.86944,-1.27399 -0.81209,-1.32153 -0.75209,-1.36639 -0.68859,-1.40895 -0.62303,-1.44842 -0.55564,-1.48469 -0.48651,-1.5177 -0.41587,-1.54738 -0.34391,-1.57367 -0.27084,-1.59652 -0.19678,-1.61592 -0.12198,-1.63182 -0.0466,-1.64424 0.0293,-1.65316 0.10372,-1.65861 0.17804,-1.66061 0.25411,-1.65898 0.32998,-1.65392 0.40549,-1.64548 0.48049,-1.6337 0.55483,-1.61863 0.62833,-1.60035 0.7008,-1.57892 0.77217,-1.55444 0.84225,-1.52696 0.91096,-1.49659 0.97817,-1.46342 1.0426,-1.42828 1.10468,-1.39099 1.16656,-1.34982 1.22661,-1.30626 1.28468,-1.26035 1.34072,-1.21224 1.39464,-1.16203 1.44636,-1.10987 1.4958,-1.05588 1.5429,-1.00019 1.58765,-0.94291 1.63,-0.88418 1.66988,-0.8241 1.70681,-0.76374 1.74064,-0.70353 1.77281,-0.64004 1.8025,-0.57564 1.8297,-0.51043 1.8544,-0.44452 1.87663,-0.37803 1.89635,-0.3111 1.91359,-0.24385 1.9284,-0.17643 1.94078,-0.10888 1.95076,-0.0413 1.95842,0.0261 1.96372,0.0926 1.96675,0.15687 1.96725,0.22348 1.96557,0.2897 1.96174,0.3555 1.95586,0.42074 1.94793,0.48541 1.93804,0.54934 1.92627,0.6125 1.91266,0.67478 1.89729,0.73616 1.88022,0.79657 1.86153,0.85599 1.84145,0.91392 1.8209,0.96836 1.79737,1.02431 1.77247,1.07913 1.74624,1.13285 1.71876,1.1854 1.69009,1.23676 1.66032,1.28689 1.62956,1.33571 1.59785,1.38326 1.56527,1.4295 1.53187,1.47445 1.4978,1.51802 1.46316,1.56018 1.43006,1.59874 1.39386,1.63806 1.35711,1.67613 1.31987,1.71295 1.28223,1.74854 1.2442,1.78289 1.20592,1.816 1.16744,1.84786 1.12884,1.87849 1.09016,1.90789 1.05144,1.93614 1.01275,1.9632 0.97412,1.98914 0.93855,2.01226 0.90012,2.03549 0.86167,2.0577 0.8234,2.07895 0.7853,2.09921 0.74747,2.11852 0.70992,2.1369 0.67274,2.15437 0.63597,2.17095 0.59964,2.18668 0.56377,2.2016 0.52839,2.215732 0.49352,2.2291 0.46214,2.24087 0.42873,2.25221 0.39539,2.26299 0.36254,2.27313 0.33024,2.28268 0.29851,2.29168 0.26732,2.30016 0.23673,2.30811 0.20673,2.31562 0.17735,2.32266 0.14857,2.32928 0.12044,2.33551 0.093,2.34136 0.0688,2.34654 0.0433,2.35115 0.0177,2.35542 -0.007,2.3594 -0.0317,2.36316 -0.0555,2.36664 -0.0787,2.36993 -0.10125,2.37301 -0.12311,2.37593 -0.14425,2.37867 -0.16473,2.3813 -0.18449,2.38379 -0.20357,2.38619 -0.21968,2.38847 -0.23634,2.39027 -0.25332,2.39179 -0.26972,2.39327 -0.28551,2.39473 -0.30068,2.39614 -0.31525,2.39755 -0.32921,2.39897 -0.34254,2.40038 -0.35528,2.40182 -0.3674,2.40329 -0.37889,2.40481 -0.38977,2.40636 -0.3982,2.40805 -0.40663,2.40939 -0.41563,2.41043 -0.42412,2.41154 -0.43209,2.41273 -0.43956,2.41397 -0.44646,2.4153 -0.45277,2.41672 -0.45849,2.41825 -0.46364,2.41986 -0.46817,2.42158 -0.47215,2.42342 -0.4755,2.42536 -0.47686,2.4275 -0.47773,2.42938 -0.47926,2.43094 -0.48031,2.43261 -0.4809,2.43436 -0.48099,2.43623 -0.4806,2.43816 -0.47973,2.4402 -0.47836,2.44234 -0.47653,2.44458 -0.47419,2.44689 -0.47137,2.4493 -0.46806,2.45183 -0.46329,2.45441 -0.45768,2.4568 -0.45287,2.45882 -0.44768,2.4609 -0.44212,2.46302 -0.43616,2.46521 -0.42978,2.46745 -0.42295,2.46975 -0.41566,2.47211 -0.40792,2.47453 -0.39973,2.47697 -0.39108,2.47947 -0.38197,2.48203 -0.3718,2.48453 -0.36063,2.4868 -0.35014,2.48868 -0.33931,2.49055 -0.32817,2.49241 -0.31667,2.49427 -0.30486,2.49612 -0.29271,2.49793 -0.28021,2.49975 -0.26739,2.50153 -0.25423,2.50326 -0.24074,2.50497 -0.22691,2.50662 -0.21248,2.50819 -0.19727,2.50942 -0.18245,2.51032 -0.16744,2.51114 -0.15215,2.5119 -0.13663,2.51256 -0.12079,2.51315 -0.10465,2.51366 -0.0882,2.51406 -0.0714,2.51438 -0.0544,2.51459 -0.037,2.51467 -0.0193,2.51465 -10e-4,2.5145 0.0169,2.51423 0.0355,2.5138 0.0544,2.51325 0.0735,2.51254 0.093,2.51167 0.11279,2.51064 0.13284,2.50945 0.15319,2.50805 0.17384,2.50649 0.19476,2.50472 0.21597,2.50277 0.23748,2.50059 0.25932,2.49817 0.28194,2.49525 0.30417,2.49197 0.3266,2.48846 0.34924,2.48471 0.37215,2.4807 0.3953,2.47645 14.89579,-1.54543 -0.3808,-2.33578 -0.35907,-2.34177 -0.33753,-2.3475 -0.31659,-2.35282 -0.29585,-2.35768 -0.27484,-2.36228 -0.25402,-2.36665 -0.2334,-2.37081 -0.21301,-2.37477 -0.19287,-2.37854 -0.17294,-2.3821 -0.15328,-2.38549 -0.13387,-2.38868 -0.11468,-2.39173 -0.0958,-2.39459 -0.0771,-2.39729 -0.0587,-2.39985 -0.0405,-2.40226 -0.0226,-2.40453 -0.005,-2.40666 0.0124,-2.40866 0.0296,-2.41055 0.0464,-2.41233 0.063,-2.41397 0.0793,-2.41553 0.0953,-2.41698 0.11112,-2.41834 0.12663,-2.41962 0.14159,-2.42073 0.15607,-2.42158 0.17078,-2.42216 0.18527,-2.42266 0.19957,-2.42309 0.21359,-2.42349 0.22733,-2.4238 0.24076,-2.42409 0.25388,-2.42432 0.2667,-2.42453 0.27921,-2.4247 0.29143,-2.42484 0.30331,-2.42496 0.31493,-2.42507 0.32621,-2.42516 0.33719,-2.42523 0.34786,-2.42532 0.35823,-2.42539 0.36822,-2.42549 0.37782,-2.42559 0.38697,-2.42574 0.39569,-2.42593 0.404,-2.42614 0.41187,-2.42642 0.41932,-2.42673 0.42632,-2.4271 0.43228,-2.42745 0.43823,-2.42758 0.44396,-2.42766 0.44933,-2.4278 0.45436,-2.42801 0.45894,-2.42826 0.46311,-2.42863 0.46677,-2.42906 0.46996,-2.42957 0.47267,-2.43018 0.4749,-2.43088 0.47666,-2.43167 0.47795,-2.43257 0.47872,-2.43354 0.47904,-2.43462 0.47889,-2.43578 0.47822,-2.43705 0.47708,-2.4384 0.47543,-2.43987 0.47319,-2.44144 0.47036,-2.44312 0.46689,-2.44492 0.46284,-2.44682 0.45817,-2.44885 0.45289,-2.45094 0.44699,-2.45317 0.43951,-2.45544 0.43228,-2.45741 0.42454,-2.45943 0.41629,-2.46151 0.40747,-2.46367 0.39808,-2.46588 0.38807,-2.46815 0.37737,-2.47047 0.366,-2.47287 0.35398,-2.47528 0.34127,-2.47775 0.32789,-2.48022 0.31384,-2.48271 0.2991,-2.4852 0.28369,-2.48767 0.2676,-2.49014 0.25083,-2.49254 0.23337,-2.49491 0.21519,-2.49721 0.19629,-2.49943 0.17654,-2.50158 0.15602,-2.50361 0.13466,-2.50551 0.11253,-2.50728 0.0896,-2.50886 0.0658,-2.51027 0.0399,-2.51128 0.0144,-2.5118 -0.0116,-2.51204 -0.0384,-2.51199 -0.0659,-2.51164 -0.0941,-2.51096 -0.12314,-2.50994 -0.15293,-2.50851 -0.18355,-2.50668 -0.21498,-2.50442 -0.24718,-2.50165 -0.28019,-2.4984 -0.31396,-2.4946 -0.34849,-2.49023 -0.38381,-2.48527 -0.41983,-2.47965 -0.4566,-2.47338 -0.49408,-2.46638 -0.53225,-2.458672 -0.57117,-2.45013 -0.61085,-2.44079 -0.65126,-2.43053 -0.69244,-2.41936 -0.73428,-2.40722 -0.77681,-2.39407 -0.81996,-2.37986 -0.86556,-2.36368 -0.9104,-2.34645 -0.95496,-2.32827 -0.99994,-2.30891 -1.04527,-2.28835 -1.09092,-2.26653 -1.1369,-2.24339 -1.1832,-2.21892 -1.22981,-2.193 -1.27664,-2.16564 -1.32366,-2.13679 -1.3708,-2.10643 -1.418,-2.07448 -1.46692,-2.03945 -1.51468,-2.00301 -1.56113,-1.9656 -1.60727,-1.92662 -1.65305,-1.88603 -1.69839,-1.8438 -1.74322,-1.79993 -1.78763,-1.75425 -1.83137,-1.70692 -1.87452,-1.65775 -1.91689,-1.60684 -1.95845,-1.55415 -1.99908,-1.49967 -2.03968,-1.4417 -2.07859,-1.38201 -2.1152,-1.32182 -2.15047,-1.26001 -2.18431,-1.19659 -2.21661,-1.13158 -2.24734,-1.065 -2.2764,-0.99681 -2.30372,-0.92702 -2.3292,-0.8557 -2.35273,-0.78289 -2.37425,-0.70862 -2.39364,-0.63294 -2.41099,-0.5543 -2.42564,-0.47407 -2.43726,-0.39451 -2.44636,-0.31399 -2.45288,-0.23256 -2.45672,-0.15033 -2.45786,-0.0674 -2.45616,0.0163 -2.4516,0.10061 -2.44409,0.1854 -2.43355,0.27061 -2.41995,0.35608 -2.40319,0.44173 -2.38282,0.52866 -2.35856,0.61621 -2.33128,0.70125 -2.30073,0.78576 -2.26687,0.86963 -2.22971,0.95266 -2.18922,1.03478 -2.14536,1.11583 -2.09814,1.19571 -2.04755,1.27425 -1.99363,1.35128 -1.93636,1.42665 -1.87581,1.50019 -1.81122,1.57243 -1.74214,1.64327 -1.67138,1.70968 -1.59763,1.77348 -1.521,1.83453 -1.44155,1.89264 -1.35938,1.94769 -1.27458,1.99955 -1.18722,2.04808 -1.09742,2.09312 -1.00533,2.13453 -0.91107,2.17215 -0.81482,2.20587 -0.716,2.23569 -0.61342,2.26149 -0.51197,2.28188 -0.40936,2.29783 -0.30578,2.30927 -0.20143,2.31609 -0.0965,2.31822 0.009,2.31562 0.11423,2.30821 0.21967,2.29598 0.32484,2.27881 0.42949,2.25675 0.53339,2.22976 0.63668,2.19766 0.74112,2.15944 0.84097,2.11694 0.93892,2.06961 1.03472,2.01754 1.12815,1.96081 1.21892,1.8995 1.30684,1.83371 1.39169,1.763532 1.47323,1.68908 1.55123,1.61049 1.62542,1.52797 1.69561,1.44163 1.76163,1.35157 1.82481,1.25525 1.88102,1.15826 1.93234,1.0584 1.97857,0.95593 2.01955,0.8511 2.05517,0.74418 2.08526,0.63543 2.10975,0.52508 2.12851,0.41345 2.14144,0.30081 2.14848,0.18748 2.14958,0.0738 2.14463,-0.04 2.13317,-0.15678 2.11543,-0.26976 2.09166,-0.38153 2.06194,-0.49189 2.02629,-0.60054 1.98484,-0.70712 1.93766,-0.81132 1.88485,-0.91285 1.82657,-1.01143 1.76293,-1.10669 1.69413,-1.19837 1.62036,-1.28614 1.54183,-1.36974 1.45647,-1.45082 1.36824,-1.52509 1.27637,-1.59394 1.18089,-1.65745 1.08202,-1.715472 0.9801,-1.76778 0.8755,-1.8142 0.76846,-1.85459 0.65936,-1.88881 0.54854,-1.91676 0.43636,-1.93829 0.32321,-1.95333 0.20945,-1.96185 0.0927,-1.96372 -0.0219,-1.95846 -0.13509,-1.94653 -0.24723,-1.92804 -0.35796,-1.90308 -0.46684,-1.87174 -0.57347,-1.83413 -0.67759,-1.79039 -0.77877,-1.74067 -0.87673,-1.68513 -0.97107,-1.62401 -1.06146,-1.5575 -1.14761,-1.48585 -1.23092,-1.40761 -1.3081,-1.32535 -1.37922,-1.2395 -1.44494,-1.14972 -1.50499,-1.0564 -1.55914,-0.95987 -1.60733,-0.86038 -1.64924,-0.7585 -1.6848,-0.65462 -1.71387,-0.54912 -1.73641,-0.44242 -1.75236,-0.3349 -1.76171,-0.22697 -1.76446,-0.11711 -1.76021,-0.008 -1.74927,0.0984 -1.73189,0.20383 -1.70819,0.30758 -1.67828,0.40928 -1.64233,0.50857 -1.60052,0.60509 -1.55306,0.69848 -1.50013,0.78842 -1.44202,0.8746 -1.37895,0.9567 -1.3112,1.03445 -1.23808,1.10857 -1.16068,1.17754 -1.08041,1.24033 -0.99676,1.29775 -0.91013,1.34966 -0.82082,1.39588 -0.72925,1.43628 -0.63577,1.47077 -0.54076,1.49923 -0.4446,1.52163 -0.34768,1.53792 -0.25039,1.54809 -0.15311,1.55217 -0.0552,1.55012 0.0422,1.54182 0.13722,1.52745 0.23062,1.50726 0.32211,1.48138 0.41133,1.45 0.49794,1.41325 0.58165,1.37136 0.66214,1.32454 0.7391,1.27302 0.8123,1.21705 0.88144,1.15691 0.94632,1.09286 1.00709,1.02477 1.0635,0.95276 1.11406,0.87864 1.15957,0.80188 1.19987,0.72288 1.23491,0.64194 1.26454,0.55946 1.28876,0.47573 1.30749,0.39116 1.32073,0.30608 1.32848,0.22084 1.33079,0.13581 1.3277,0.0513 1.31925,-0.0327 1.30538,-0.1161 1.28638,-0.19695 1.26237,-0.27589 1.23359,-0.35262 1.20017,-0.42689 1.1623,-0.49835 1.12025,-0.5668 1.07418,-0.63196 1.02437,-0.69362 0.97109,-0.75156 0.91457,-0.80558 0.85513,-0.85551 0.79288,-0.90129 0.72775,-0.943 0.66113,-0.9797 0.59276,-1.01176 0.523,-1.03914 0.45214,-1.0618 0.38052,-1.07969 0.30841,-1.09282 0.23619,-1.10118 0.16411,-1.10483 0.0925,-1.10381 0.0217,-1.0982 -0.0481,-1.08807 -0.11653,-1.07357 -0.18377,-1.05468 -0.24868,-1.0317 -0.31145,-1.00476 -0.3718,-0.97407 -0.42958,-0.93976 -0.48449,-0.90211 -0.53639,-0.8613 -0.5851,-0.81755 -0.63043,-0.77114 -0.67232,-0.72224 -0.71052,-0.67121 -0.74499,-0.61828 z"
     id="path935"
     inkscape:connector-curvature="0"
     style="fill:#ff0000;fill-opacity:1;stroke:#000000;stroke-width:0.1;stroke-miterlimit:4;stroke-dasharray:none" />
  <path
     d="m 54.96637,38.744613 -1.111394,2.247684 -1.089529,2.25762 -1.067303,2.267474 -1.044682,2.277247 -1.021723,2.286923 -0.99838,2.296471 -0.974645,2.305915 -0.95055,2.31525 -0.9261,2.32442 -0.901238,2.333443 -0.876018,2.342323 -0.85042,2.351034 -0.82445,2.359557 -0.79811,2.367888 -0.771367,2.376037 -0.744267,2.383971 -0.716834,2.391664 -0.688924,2.399163 -0.660729,2.406375 -0.632166,2.41337 -0.602695,2.42006 -0.573073,2.4262 -0.543314,2.43189 -0.513211,2.43728 -0.48276,2.44237 -0.451959,2.447098 -0.420782,2.45154 -0.389273,2.45561 -0.357438,2.45932 -0.325208,2.46267 -0.29268,2.46562 -0.259805,2.46818 -0.226598,2.47032 -0.193095,2.47206 -0.159234,2.47334 -0.125093,2.4742 -0.09065,2.47459 -0.05589,2.47449 -0.02084,2.47393 0.01448,2.47285 0.05009,2.47127 0.08595,2.46917 0.122094,2.46654 0.15847,2.46334 0.195064,2.45961 0.231942,2.45527 0.269561,2.45014 0.307053,2.44422 0.344561,2.43761 0.38224,2.4304 0.420101,2.42256 0.458126,2.41406 0.4963,2.40488 0.534595,2.39508 0.573033,2.38453 0.611562,2.37334 0.650196,2.36142 0.688894,2.34878 0.72766,2.33543 0.766489,2.32131 0.805334,2.30647 0.844167,2.29085 0.88304,2.27448 0.921864,2.25732 0.960644,2.2394 0.999388,2.22065 1.038042,2.20111 1.076577,2.18077 1.115029,2.1596 1.153334,2.13761 1.191521,2.11476 1.229685,2.0909 1.268081,2.06572 1.305562,2.03978 1.342823,2.01304 1.379762,1.98541 1.416435,1.95692 1.452782,1.92753 1.488747,1.89731 1.524352,1.8662 1.559574,1.83421 1.594356,1.80135 1.628694,1.76758 1.662542,1.73297 1.695983,1.69739 1.728644,1.66119 1.760875,1.62398 1.792568,1.58586 1.823599,1.54695 1.853993,1.50715 1.883732,1.46653 1.912757,1.42504 1.941061,1.38276 1.96864,1.33958 1.9955,1.29551 2.02159,1.25053 2.04686,1.20475 2.0715,1.15717 2.094621,1.10945 2.116767,1.06101 2.137931,1.01179 2.15812,0.96191 2.17725,0.91128 2.19531,0.86002 2.21228,0.80806 2.22814,0.75551 2.24285,0.70232 2.25636,0.64859 2.26869,0.59423 2.2798,0.53933 2.28961,0.48404 2.29814,0.42817 2.30539,0.3719 2.3113,0.31519 2.31584,0.25812 2.31901,0.20059 2.32079,0.14267 2.32113,0.0844 2.32001,0.0258 2.31741,-0.0332 2.31328,-0.0923 2.30754,-0.15213 2.29992,-0.21233 2.29062,-0.2719 2.27973,-0.33148 2.26725,-0.39101 2.25314,-0.45041 2.23741,-0.50967 2.22003,-0.56873 2.20101,-0.62755 2.18036,-0.68605 2.15801,-0.74422 2.13403,-0.80198 2.10837,-0.85929 2.08106,-0.91609 2.05206,-0.97231 2.02139,-1.02801 1.989,-1.08307 1.95494,-1.1375 1.91911,-1.19123 1.88166,-1.24417 1.84248,-1.29631 1.8016,-1.3475 1.75908,-1.39779 1.71487,-1.44703 1.66876,-1.49537 1.62044,-1.54281 1.57105,-1.58816 1.52015,-1.63216 1.46772,-1.67481 1.41388,-1.71597 1.35866,-1.75562 1.30205,-1.79367 1.24411,-1.8301 1.18487,-1.86486 1.12446,-1.89782 1.06281,-1.92904 0.9999,-1.95845 0.93586,-1.98598 0.8707,-2.0116 0.80445,-2.03522 0.73722,-2.05683 0.66903,-2.07632 0.59993,-2.0937 0.53008,-2.10885 0.45943,-2.12179 0.38811,-2.13242 0.31619,-2.14074 0.24376,-2.14666 0.16969,-2.15006 0.0962,-2.15061 0.0228,-2.14864 -0.0507,-2.14412 -0.12426,-2.13712 -0.19766,-2.12752 -0.27088,-2.1154 -0.34387,-2.10068 -0.41656,-2.0834 -0.48889,-2.06348 -0.56072,-2.04098 -0.63197,-2.01584 -0.70252,-1.98808 -0.77231,-1.9577 -0.84117,-1.92475 -0.90902,-1.88917 -0.97578,-1.85102 -1.0413,-1.81036 -1.1055,-1.76714 -1.16827,-1.72142 -1.22948,-1.67328 -1.28903,-1.62271 -1.34694,-1.56964 -1.40379,-1.51315 -1.45732,-1.4552 -1.50869,-1.39517 -1.55784,-1.33306 -1.60473,-1.2689 -1.64922,-1.20277 -1.69126,-1.13479 -1.73067,-1.06503 -1.76746,-0.99354 -1.80149,-0.92042 -1.83266,-0.84584 -1.86093,-0.76985 -1.88618,-0.69262 -1.90838,-0.61415 -1.92741,-0.53477 -1.94322,-0.45443 -1.95579,-0.37325 -1.96505,-0.29146 -1.97092,-0.20917 -1.97337,-0.12651 -1.97239,-0.0436 -1.96787,0.0396 -1.95945,0.12443 -1.94731,0.20722 -1.93158,0.28963 -1.91232,0.37145 -1.88951,0.45254 -1.86316,0.53272 -1.83331,0.61186 -1.79997,0.68977 -1.76315,0.76628 -1.72297,0.84126 -1.67941,0.9145 -1.63255,0.98587 -1.58249,1.0552 -1.52927,1.12233 -1.47299,1.1871 -1.41373,1.24936 -1.35166,1.30894 -1.28674,1.36579 -1.21913,1.41974 -1.14896,1.47061 -1.07632,1.51833 -0.99924,1.56372 -0.92157,1.60419 -0.84224,1.64082 -0.7611,1.67377 -0.67837,1.70284 -0.59432,1.72795 -0.50903,1.74906 -0.42279,1.76602 -0.33572,1.77884 -0.24806,1.78744 -0.16002,1.79172 -0.0718,1.79175 0.0163,1.78741 0.10431,1.77875 0.19188,1.76573 0.27882,1.74835 0.36489,1.72661 0.44989,1.70057 0.53357,1.67021 0.61568,1.63564 0.69762,1.59603 0.77696,1.55207 0.85273,1.50456 0.92595,1.45321 0.99641,1.39816 1.06392,1.33946 1.12828,1.2774 1.18925,1.21203 1.24672,1.14362 1.30046,1.07225 1.35042,0.9981 1.39635,0.92144 1.43818,0.84234 1.47571,0.76112 1.50885,0.67794 1.53744,0.59313 1.56139,0.50689 1.58067,0.41939 1.59509,0.33113 1.60463,0.24205 1.60934,0.14901 1.60827,0.0595 1.60224,-0.0298 1.59124,-0.11838 1.57538,-0.20603 1.55464,-0.29261 1.5291,-0.37783 1.49881,-0.46136 1.46388,-0.54303 1.42444,-0.62245 1.38058,-0.69944 1.33245,-0.7737 1.28024,-0.84499 1.22403,-0.91308 1.16411,-0.97771 1.10064,-1.03869 1.03385,-1.09578 0.96396,-1.14882 0.89008,-1.1983 0.81162,-1.24417 0.73296,-1.28352 0.65322,-1.31759 0.57141,-1.34701 0.48839,-1.37139 0.40443,-1.39072 0.31973,-1.40497 0.23468,-1.41412 0.14956,-1.41818 0.0647,-1.41711 -0.0196,-1.41103 -0.10308,-1.39997 -0.18539,-1.38395 -0.26631,-1.36311 -0.34548,-1.33756 -0.42267,-1.30741 -0.4976,-1.27277 -0.57118,-1.23322 -0.64336,-1.18832 -0.70961,-1.14061 -0.77252,-1.0892 -0.83191,-1.03432 -0.88758,-0.97622 -0.93935,-0.91513 -0.98704,-0.8513 -1.03053,-0.78502 -1.06969,-0.71654 -1.10458,-0.64583 -1.13458,-0.5741 -1.16014,-0.50069 -1.18106,-0.42625 -1.19724,-0.35103 -1.2087,-0.27542 -1.21543,-0.19952 -1.21747,-0.12377 -1.21471,-0.0445 -1.20668,0.0302 -1.19409,0.1038 -1.17704,0.176 -1.15567,0.24659 -1.13006,0.31528 -1.10039,0.38183 -1.06684,0.44598 -1.02955,0.50753 -0.98872,0.56625 -0.94458,0.62192 -0.89732,0.67439 -0.84719,0.72343 -0.79438,0.76894 -0.73912,0.81082 -0.68176,0.84879 -0.62156,0.88339 -0.55852,0.91438 -0.49585,0.93983 -0.43217,0.96105 -0.36778,0.97805 -0.30285,0.99079 -0.23784,0.99928 -0.17284,1.00358 -0.10821,1.00369 -0.0442,0.99968 0.0189,0.99165 0.0809,0.97963 0.14154,0.9638 0.20055,0.94425 0.25769,0.92109 0.3128,0.89452 0.36579,0.86457 0.4181,0.8305 0.46568,0.79422 0.51039,0.75528 0.5521,0.71387 0.59064,0.67019 0.62592,0.62455 0.65784,0.5771 0.68632,0.52813 0.71127,0.47786 0.73271,0.42649 0.75049,0.37441 0.76465,0.32177 0.77521,0.2688 0.7822,0.2158 0.78564,0.16289 0.7855,0.11026 0.78197,0.0574 0.77481,0.006 0.76439,-0.0435 0.75078,-0.0921 0.73413,-0.13903 0.71459,-0.18432 0.69229,-0.22768 0.66741,-0.269 0.6401,-0.30808 0.61055,-0.34483 0.57894,-0.37907 0.54549,-0.41072 0.5104,-0.43968 0.47409,-0.46562 0.43598,-0.48929 0.44226,-0.45684 -0.4905,0.39251 -0.51415,0.36097 -0.53576,0.32804 -0.55526,0.29385 -0.57258,0.25847 -0.58765,0.22208 -0.60041,0.18483 -0.61081,0.14685 -0.61881,0.10829 -0.62439,0.0693 -0.62749,0.0301 -0.62814,-0.009 -0.62634,-0.0487 -0.62204,-0.0878 -0.61531,-0.12667 -0.60629,-0.16452 -0.59465,-0.20261 -0.58078,-0.23948 -0.56463,-0.27541 -0.54654,-0.30977 -0.5258,-0.34376 -0.50326,-0.37601 -0.47876,-0.40674 -0.45243,-0.43585 -0.42432,-0.46326 -0.39455,-0.48884 -0.3633,-0.51251 -0.33063,-0.53419 -0.29667,-0.55374 -0.26159,-0.57116 -0.22548,-0.58636 -0.18853,-0.59927 -0.15083,-0.60984 -0.11257,-0.61804 -0.0739,-0.62386 -0.0349,-0.62724 0.004,-0.6282 0.0431,-0.62674 0.0819,-0.62286 0.12038,-0.61656 0.15873,-0.60783 0.19567,-0.59697 0.23229,-0.58368 0.26781,-0.56827 0.30244,-0.55064 0.33584,-0.53091 0.36801,-0.50913 0.39867,-0.48551 0.42787,-0.45997 0.45539,-0.43276 0.4812,-0.40385 0.50515,-0.37348 0.52712,-0.34177 0.5471,-0.30876 0.565,-0.27463 0.58077,-0.23951 0.59435,-0.20349 0.60567,-0.16676 0.61473,-0.12947 0.6215,-0.0917 0.62592,-0.0536 0.62802,-0.0154 0.62781,0.0229 0.62524,0.061 0.62038,0.0989 0.6132,0.13646 0.60381,0.17349 0.59216,0.20971 0.57838,0.24525 0.56245,0.2798 0.54454,0.31326 0.52466,0.34551 0.50285,0.37658 0.47926,0.40615 0.45397,0.43424 0.42707,0.46073 0.39863,0.48553 0.3688,0.50857 0.33768,0.52974 0.30537,0.549 0.27202,0.56627 0.23771,0.58151 0.20259,0.59465 0.16679,0.60566 0.13044,0.61455 0.0937,0.62119 0.0566,0.62565 0.0194,0.62792 -0.0178,0.62796 -0.0549,0.62582 -0.0918,0.62147 -0.12824,0.61498 -0.16453,0.60629 -0.19966,0.59564 -0.23435,0.58288 -0.26817,0.5681 -0.30104,0.55138 -0.33279,0.53283 -0.36341,0.51244 -0.39266,0.49038 -0.36584,0.52005 -0.35525,0.55071 -0.39388,0.53516 -0.4318,0.51708 -0.46884,0.49642 -0.50484,0.47331 -0.53965,0.44771 -0.57306,0.41982 -0.60495,0.38966 -0.63514,0.35733 -0.66359,0.32294 -0.69002,0.2866 -0.71444,0.24845 -0.73667,0.20857 -0.75659,0.16714 -0.77416,0.12428 -0.78856,0.0857 -0.80125,0.0419 -0.8114,-0.004 -0.81891,-0.0512 -0.82368,-0.0989 -0.82569,-0.14712 -0.82491,-0.19567 -0.8213,-0.2444 -0.81487,-0.29309 -0.80565,-0.34168 -0.79358,-0.38993 -0.7788,-0.43763 -0.76119,-0.48473 -0.74092,-0.531 -0.71797,-0.57635 -0.69243,-0.62055 -0.66825,-0.65935 -0.63823,-0.70049 -0.60542,-0.74047 -0.57036,-0.77878 -0.53304,-0.81536 -0.49367,-0.85001 -0.45229,-0.88269 -0.40902,-0.91326 -0.36396,-0.94161 -0.31732,-0.96765 -0.26916,-0.99131 -0.21969,-1.01248 -0.16899,-1.03115 -0.11723,-1.04721 -0.0645,-1.06065 -0.011,-1.07141 0.0394,-1.07943 0.0923,-1.08477 0.14717,-1.08722 0.20231,-1.08693 0.2575,-1.08386 0.31267,-1.07806 0.36774,-1.06949 0.42234,-1.05823 0.47655,-1.04424 0.53023,-1.02757 0.58306,-1.00831 0.63511,-0.98644 0.68619,-0.96204 0.73612,-0.93516 0.78485,-0.90591 0.83217,-0.87432 0.87805,-0.84056 0.91923,-0.8078 0.9616,-0.76969 1.00227,-0.72957 1.0411,-0.68754 1.07805,-0.64372 1.11303,-0.59817 1.14599,-0.55099 1.1768,-0.50232 1.20546,-0.45224 1.23189,-0.40084 1.25606,-0.34829 1.2779,-0.2946 1.2974,-0.23998 1.31447,-0.18448 1.32918,-0.12822 1.34142,-0.0713 1.35124,-0.0139 1.35845,0.0413 1.36307,0.0981 1.36511,0.15618 1.36473,0.21436 1.3619,0.27247 1.35664,0.33049 1.34898,0.38827 1.33892,0.44573 1.32657,0.50266 1.31186,0.5591 1.29488,0.61489 1.27567,0.67 1.25423,0.72423 1.23067,0.77762 1.20503,0.82998 1.17731,0.88129 1.14762,0.93145 1.11599,0.98044 1.08387,1.02637 1.04895,1.07176 1.01164,1.11631 0.97264,1.15943 0.93205,1.201 0.88992,1.24097 0.84636,1.2793 0.80141,1.31597 0.75521,1.35089 0.70774,1.38403 0.65916,1.41542 0.60948,1.44493 0.55883,1.47262 0.50726,1.49839 0.45487,1.52228 0.4017,1.54426 0.34786,1.5643 0.29343,1.5824 0.23846,1.59853 0.18545,1.61217 0.12977,1.6239 0.0736,1.63369 0.0172,1.64152 -0.0394,1.64743 -0.0961,1.65137 -0.15288,1.65337 -0.20962,1.65347 -0.26623,1.65164 -0.32263,1.64796 -0.37879,1.64239 -0.43496,1.63491 -0.48999,1.62583 -0.54503,1.61482 -0.59951,1.6021 -0.65345,1.58765 -0.70676,1.57154 -0.75941,1.55374 -0.81139,1.53436 -0.86171,1.51374 -0.91082,1.49159 -0.9601,1.46714 -1.00849,1.44127 -1.05596,1.41396 -1.10254,1.38522 -1.14812,1.35515 -1.19267,1.32377 -1.23621,1.29109 -1.27868,1.25718 -1.32005,1.22205 -1.36023,1.18583 -1.39924,1.14854 -1.43699,1.11023 -1.47355,1.07097 -1.50881,1.03079 -1.54281,0.98976 -1.57552,0.94789 -1.60692,0.90526 -1.63701,0.86191 -1.66572,0.81797 -1.69222,0.77473 -1.71782,0.7293 -1.74214,0.68329 -1.76512,0.63675 -1.78675,0.58972 -1.80709,0.54224 -1.82606,0.49437 -1.8437,0.4461 -1.86004,0.39752 -1.87499,0.34866 -1.88865,0.29956 -1.90096,0.25024 -1.91198,0.20079 -1.92165,0.15117 -1.93006,0.1015 -1.93714,0.0519 -1.94294,0.002 -1.94749,-0.0473 -1.95077,-0.0967 -1.95284,-0.14601 -1.9537,-0.19511 -1.95325,-0.24264 -1.95127,-0.29104 -1.9481,-0.33934 -1.94375,-0.38744 -1.93829,-0.43519 -1.93169,-0.48271 -1.92405,-0.52983 -1.91528,-0.57666 -1.90548,-0.62308 -1.89467,-0.66908 -1.88282,-0.71465 -1.86997,-0.75978 -1.85618,-0.80446 -1.84143,-0.84863 -1.82575,-0.89228 -1.80916,-0.9354 -1.79171,-0.97797 -1.7732,-1.0203 -1.754231,-1.06142 -1.734278,-1.10221 -1.71363,-1.14232 -1.69222,-1.18178 -1.6706,-1.21948 -1.64752,-1.25717 -1.62366,-1.29428 -1.59915,-1.33075 -1.57401,-1.36653 -1.548238,-1.40164 -1.521906,-1.43607 -1.494984,-1.46982 -1.467506,-1.50285 -1.439572,-1.53517 -1.411061,-1.56681 -1.382109,-1.59774 -1.352702,-1.62793 -1.322864,-1.65742 -1.292583,-1.6862 -1.261962,-1.71424 -1.230941,-1.74156 -1.199576,-1.76819 -1.167899,-1.79405 -1.135915,-1.81923 -1.103619,-1.84367 -1.07111,-1.86739 -1.038544,-1.89021 -1.006332,-1.91179 -0.973084,-1.93284 -0.939625,-1.95318 -0.905994,-1.97287 -0.872253,-1.99185 -0.838368,-2.01013 -0.80436,-2.02774 -0.770277,-2.04467 -0.736081,-2.06094 -0.701864,-2.07655 -0.667574,-2.09147 -0.633263,-2.10578 -0.598917,-2.11944 -0.564579,-2.13248 -0.530269,-2.14486 -0.495969,-2.15664 -0.461691,-2.16781 -0.427481,-2.17838 -0.393353,-2.18836 -0.359272,-2.19776 -0.325296,-2.20659 -0.291419,-2.21483 -0.257639,-2.22256 -0.224673,-2.22944 -0.191463,-2.23562 -0.158123,-2.24124 -0.124935,-2.24632 -0.09191,-2.25092 -0.05907,-2.25502 -0.02643,-2.25863 0.006,-2.26176 0.03831,-2.26446 0.07036,-2.26667 0.102213,-2.26846 0.13381,-2.26981 0.165223,-2.27075 0.196342,-2.27129 0.227277,-2.2714 0.257933,-2.27114 0.28835,-2.27049 0.318489,-2.26948 0.348376,-2.26813 0.378,-2.26642 0.407342,-2.26437 0.436398,-2.261988 0.465204,-2.25931 0.493689,-2.25632 0.521384,-2.25299 0.548918,-2.24912 0.576446,-2.24483 0.603396,-2.24031 0.630652,-2.235397 0.657349,-2.230322 0.683667,-2.224999 0.709704,-2.219471 0.735427,-2.213739 0.760837,-2.207769 0.785942,-2.201621 0.810745,-2.195277 0.835208,-2.188783 0.859372,-2.182101 0.883213,-2.175258 0.906746,-2.168269 0.929959,-2.161169 0.952854,-2.153885 0.975421,-2.146534 0.997685,-2.139025 1.019632,-2.131446 1.041523,-2.12339 z"
     id="path937"
     inkscape:connector-curvature="0"
     style="fill:#ff0000;fill-opacity:1;stroke:#000000;stroke-width:0.1;stroke-miterlimit:4;stroke-dasharray:none" />
  <path
     d="m 115.46504,305.47881 -6.06798,16.97585 0.59515,0.20112 0.6018,0.18025 0.60772,0.15918 0.61289,0.1379 0.61732,0.11647 0.62101,0.0949 0.62394,0.0732 0.6261,0.0514 0.62752,0.0296 0.62817,0.008 0.62806,-0.0142 0.62717,-0.0361 0.62554,-0.0579 0.62315,-0.0797 0.61999,-0.10135 0.61608,-0.12287 0.61142,-0.14427 0.60603,-0.16548 0.5999,-0.18649 0.59303,-0.20729 0.58545,-0.22782 0.57716,-0.24808 0.56816,-0.26804 0.55848,-0.28767 0.54811,-0.30696 0.53709,-0.32586 0.52541,-0.34439 0.51309,-0.36248 0.50016,-0.38013 0.4866,-0.39733 0.47246,-0.41405 0.45775,-0.43025 0.44248,-0.44595 0.42668,-0.46108 0.41035,-0.47568 0.39353,-0.48968 0.37623,-0.5031 0.35847,-0.5159 0.34028,-0.52808 0.32167,-0.53961 0.30267,-0.55049 0.28332,-0.5607 0.2636,-0.57024 0.24358,-0.57907 0.22325,-0.58721 0.20266,-0.59463 0.18181,-0.60133 0.16076,-0.6073 0.1395,-0.61253 0.11807,-0.61702 0.0965,-0.62076 0.0748,-0.62374 0.053,-0.62597 0.0312,-0.62744 0.009,-0.62815 -0.0126,-0.62809 -0.0344,-0.62727 -0.0563,-0.62569 -0.0781,-0.62334 -0.0997,-0.62025 -0.12128,-0.6164 -0.14267,-0.6118 -0.16391,-0.60646 -0.18494,-0.60037 -0.20574,-0.59357 -0.2263,-0.58604 -0.24658,-0.5778 -0.26657,-0.56886 -0.28622,-0.55922 -0.30553,-0.54892 -0.32447,-0.53793 -0.34302,-0.5263 -0.36114,-0.51403 -0.37884,-0.50114 -0.39606,-0.48763 -0.41282,-0.47354 -0.42906,-0.45886 -0.4448,-0.44364 -0.45998,-0.42787 -0.4746,-0.41159 -0.48866,-0.3948 -0.50212,-0.37753 -0.51497,-0.35981 -0.52719,-0.34165 -0.53877,-0.32307 -0.54971,-0.30411 -0.55996,-0.28476 -0.56955,-0.26509 -0.57844,-0.24508 -0.58663,-0.22477 -0.5941,-0.20421 -0.60085,-0.18337 -0.60688,-0.16233 -0.61217,-0.14109 -0.61671,-0.11968 -0.62051,-0.0981 -0.62354,-0.0764 -0.62584,-0.0547 -0.62735,-0.0331 -0.62811,-0.011 z"
     id="path939"
     inkscape:connector-curvature="0"
     style="fill:#ff0000;fill-opacity:1;stroke:#000000;stroke-width:0.1;stroke-miterlimit:4;stroke-dasharray:none" />
  <path
     d="m 176.18644,305.47882 -20.4454,5.6556 0.27134,0.90241 0.31115,0.88947 0.35035,0.87478 0.38885,0.85835 0.42658,0.84024 0.46348,0.82046 0.49946,0.79907 0.53445,0.7761 0.56839,0.7516 0.60121,0.72562 0.63285,0.6982 0.66322,0.6694 0.6923,0.63929 0.72001,0.60792 0.7463,0.57534 0.77111,0.54162 0.7944,0.50685 0.81613,0.47107 0.83625,0.43436 0.8547,0.39679 0.87149,0.35844 0.88655,0.31939 0.89986,0.2797 0.91139,0.23945 0.92112,0.19875 0.92904,0.15765 0.93513,0.11622 0.93937,0.0746 0.94175,0.0328 0.94228,-0.009 0.94095,-0.0509 0.93775,-0.0926 0.93272,-0.13419 0.92584,-0.17548 0.91713,-0.21643 0.90662,-0.25695 0.89431,-0.29695 0.88024,-0.33638 0.86443,-0.37514 0.84692,-0.41316 0.82774,-0.45036 0.80691,-0.48668 0.78451,-0.52203 0.76055,-0.55636 0.73509,-0.58959 0.70818,-0.62165 0.67988,-0.65249 0.65023,-0.68204 0.61929,-0.71024 0.58715,-0.73704 0.55383,-0.7624 0.51942,-0.78623 0.484,-0.80853 0.44761,-0.82923 0.41035,-0.84829 0.37226,-0.86567 0.33346,-0.88135 0.29398,-0.89529 0.25393,-0.90747 0.21338,-0.91784 0.17241,-0.92642 0.1311,-0.93316 0.0895,-0.93806 0.0478,-0.94111 0.006,-0.9423 -0.0359,-0.94164 -0.0777,-0.93911 -0.11933,-0.93474 -0.16073,-0.92852 -0.20181,-0.92046 -0.24248,-0.91059 -0.28268,-0.89892 -0.32233,-0.88548 -0.36134,-0.87029 -0.39962,-0.85339 -0.43714,-0.8348 -0.47377,-0.81456 -0.50948,-0.79271 -0.54419,-0.76931 -0.57781,-0.74438 -0.61031,-0.71799 -0.64158,-0.69017 -0.67161,-0.661 -0.70029,-0.63052 -0.72761,-0.5988 -0.75348,-0.5659 -0.77787,-0.53187 -0.80073,-0.4968 -0.82199,-0.46075 -0.84165,-0.4238 -0.85964,-0.38599 -0.87594,-0.34744 -0.89049,-0.30819 -0.90331,-0.26852 -0.91434,-0.22796 -0.92355,-0.18713 -0.93096,-0.14593 -0.93651,-0.10444 -0.94023,-0.0627 -0.94206,-0.0209 z"
     id="path941"
     inkscape:connector-curvature="0"
     style="fill:#ff0000;fill-opacity:1;stroke:#000000;stroke-width:0.1;stroke-miterlimit:4;stroke-dasharray:none" />
  <rect
     style="fill:#003200;fill-opacity:1;stroke:#000000;stroke-width:0.1;stroke-miterlimit:4;stroke-dasharray:none;stroke-opacity:1"
     id="rect1492"
     width="3.984179"
     height="29.984179"
     x="69.492447"
     y="293.18701" />
</svg>
