<?xml version="1.0" encoding="UTF-8" standalone="no"?>
<svg
   xmlns:dc="http://purl.org/dc/elements/1.1/"
   xmlns:cc="http://creativecommons.org/ns#"
   xmlns:rdf="http://www.w3.org/1999/02/22-rdf-syntax-ns#"
   xmlns:svg="http://www.w3.org/2000/svg"
   xmlns="http://www.w3.org/2000/svg"
   xmlns:sodipodi="http://sodipodi.sourceforge.net/DTD/sodipodi-0.dtd"
   xmlns:inkscape="http://www.inkscape.org/namespaces/inkscape"
   height="297mm"
   version="1.1"
   viewBox="0 0 210 297"
   width="210mm"
   id="svg857"
   sodipodi:docname="sphere.svg"
   inkscape:version="0.92.3 (unknown)">
  <metadata
     id="metadata861">
    <rdf:RDF>
      <cc:Work
         rdf:about="">
        <dc:format>image/svg+xml</dc:format>
        <dc:type
           rdf:resource="http://purl.org/dc/dcmitype/StillImage" />
      </cc:Work>
    </rdf:RDF>
  </metadata>
  <sodipodi:namedview
     pagecolor="#ffffff"
     bordercolor="#666666"
     borderopacity="1"
     objecttolerance="10"
     gridtolerance="10"
     guidetolerance="10"
     inkscape:pageopacity="0"
     inkscape:pageshadow="2"
     inkscape:window-width="1855"
     inkscape:window-height="1056"
     id="namedview859"
     showgrid="false"
     inkscape:zoom="0.81423962"
     inkscape:cx="396.85039"
     inkscape:cy="561.25984"
     inkscape:window-x="65"
     inkscape:window-y="24"
     inkscape:window-maximized="1"
     inkscape:current-layer="svg857" />
  <defs
     id="defs853" />
  <path
     d="m 161.82276,88.060175 0.005,-0.09986 0.0146,-0.09933 0.0249,-0.09806 0.0357,-0.09588 0.0468,-0.09271 0.0578,-0.08853 0.0686,-0.08333 0.079,-0.07713 0.0891,-0.06996 0.0985,-0.06186 0.10732,-0.05289 0.11542,-0.04308 0.12273,-0.0325 0.12918,-0.02122 0.13472,-0.0093 0.1393,0.0032 0.14285,0.01617 0.14536,0.02956 0.14677,0.04328 0.14706,0.05724 0.14623,0.07136 0.14423,0.08555 0.14107,0.09972 0.13677,0.113782 0.13129,0.127653 0.12468,0.141243 0.11692,0.154479 0.10804,0.167275 0.0981,0.179524 0.0871,0.191149 0.0751,0.202072 0.0648,0.211274 0.0527,0.220389 0.0383,0.228928 0.023,0.236511 0.007,0.243081 -0.009,0.248586 -0.0266,0.252977 -0.0442,0.256211 -0.0623,0.258251 -0.0806,0.259064 -0.0992,0.258626 -0.118,0.256913 -0.13683,0.253912 -0.15566,0.249614 -0.17439,0.244016 -0.19293,0.237121 -0.21119,0.228935 -0.2291,0.219477 -0.24655,0.208762 -0.26349,0.19682 -0.2798,0.183678 -0.29543,0.169375 -0.31029,0.153952 -0.32431,0.137454 -0.33742,0.119932 -0.34954,0.101442 -0.36063,0.08204 -0.37062,0.06175 -0.37945,0.04071 -0.38705,0.01897 -0.39342,-0.0034 -0.39844,-0.02532 -0.40248,-0.0455 -0.40481,-0.06907 -0.40579,-0.09294 -0.40538,-0.117027 -0.40357,-0.141255 -0.40035,-0.165539 -0.3957,-0.189797 -0.38965,-0.213943 -0.38219,-0.237898 -0.37332,-0.261578 -0.36307,-0.284903 -0.35145,-0.30779 -0.33848,-0.330165 -0.32422,-0.351948 -0.30865,-0.373067 -0.29185,-0.393447 -0.27385,-0.41302 -0.25469,-0.431718 -0.23443,-0.449477 -0.21309,-0.466237 -0.19077,-0.481937 -0.16749,-0.496526 -0.14334,-0.509952 -0.11837,-0.522167 -0.0926,-0.533129 -0.0662,-0.542797 -0.0392,-0.55114 -0.0116,-0.558119 0.0164,-0.563712 0.0448,-0.567901 0.0734,-0.570671 0.0989,-0.572397 0.12717,-0.572259 0.15607,-0.570538 0.18495,-0.567394 0.21378,-0.562829 0.24245,-0.556851 0.27091,-0.549472 0.29908,-0.540706 0.32692,-0.53057 0.35432,-0.519086 0.38125,-0.506279 0.40763,-0.492178 0.43341,-0.476812 0.45853,-0.460214 0.48291,-0.442423 0.50654,-0.423475 0.52933,-0.403414 0.55124,-0.382282 0.57223,-0.360124 0.59227,-0.336988 0.61128,-0.312924 0.62925,-0.287982 0.64614,-0.262214 0.66192,-0.235673 0.67655,-0.208415 0.69001,-0.180494 0.70228,-0.151962 0.71333,-0.122884 0.72314,-0.09337 0.7317,-0.06347 0.73901,-0.03325 0.74487,-0.0046 0.74944,0.02385 0.75258,0.05455 0.75447,0.08536 0.75513,0.116227 0.75456,0.1471 0.75275,0.177928 0.74974,0.208658 0.74552,0.239241 0.74013,0.26963 0.73356,0.299777 0.72584,0.329636 0.717,0.359163 0.70705,0.388316 0.69602,0.417054 0.68394,0.445337 0.67082,0.473127 0.65672,0.500388 0.64163,0.527087 0.62562,0.55319 0.60869,0.578666 0.59089,0.603488 0.57225,0.627627 0.55281,0.651057 0.53258,0.673757 0.51162,0.695704 0.48997,0.716879 0.46765,0.737262 0.44474,0.756806 0.42133,0.775496 0.39742,0.793327 0.37335,0.810122 0.35186,0.824455 0.32662,0.839125 0.30103,0.852943 0.27512,0.865907 0.24892,0.878015 0.22245,0.88927 0.19578,0.899674 0.1689,0.909229 0.14187,0.917941 0.11472,0.925816 0.0875,0.932862 0.0601,0.939086 0.0328,0.944498 0.005,0.949108 -0.0219,0.952929 -0.0492,0.955966 -0.0765,0.95825 -0.10363,0.95978 -0.13065,0.96057 -0.15755,0.96063 -0.18428,0.96001 -0.21082,0.95868 -0.23718,0.95668 -0.2633,0.95404 -0.28919,0.95076 -0.31483,0.94685 -0.34019,0.94236 -0.36522,0.9373 -0.38986,0.93173 -0.41411,0.92566 -0.43796,0.91911 -0.45878,0.9131 -0.4804,0.90578 -0.50263,0.89739 -0.52446,0.8886 -0.54593,0.87942 -0.56698,0.8699 -0.58766,0.86003 -0.60792,0.84985 -0.62778,0.83936 -0.64724,0.82861 -0.66629,0.81758 -0.68493,0.80633 -0.70316,0.79485 -0.72099,0.78316 -0.7384,0.77129 -0.75542,0.75925 -0.77202,0.74707 -0.78823,0.73475 -0.80404,0.72232 -0.81945,0.70979 -0.83447,0.69717 -0.84911,0.6845 -0.86336,0.67176 -0.87723,0.65899 -0.89074,0.6462 -0.90388,0.63341 -0.91666,0.62062 -0.92906,0.60789 -0.94106,0.59528 -0.95266,0.58281 -0.96389,0.57049 -0.974,0.55935 -0.98266,0.54955 -0.99208,0.53742 -1.00118,0.52544 -1.00999,0.5136 -1.01852,0.50192 -1.02676,0.49041 -1.03475,0.47906 -1.04246,0.46791 -1.04993,0.45695 -1.05714,0.44618 -1.06413,0.43563 -1.07088,0.42529 -1.07741,0.41517 -1.08372,0.40529 -1.08983,0.39563 -1.09574,0.38623 -1.10146,0.37707 -1.10699,0.36817 -1.11234,0.35953 -1.11753,0.35115 -1.12255,0.34304 -1.12741,0.33521 -1.13212,0.32766 -1.13669,0.32039 -1.14112,0.31342 -1.14541,0.30674 -1.14957,0.30038 -1.15359,0.29441 -1.15745,0.28887 -1.16119,0.28375 -1.16479,0.27905 -1.16698,0.27829 -1.1694,0.27458 -1.17175,0.27093 -1.17402,0.26761 -1.17618,0.26463 -1.17828,0.26198 -1.18028,0.25969 -1.18221,0.25773 -1.18405,0.25611 -1.18582,0.25485 -1.18751,0.25394 -1.18912,0.25337 -1.19067,0.25316 -1.19213,0.25329 -1.19352,0.25379 -1.19483,0.25464 -1.19607,0.25584 -1.19723,0.25741 -1.19831,0.25933 -1.19931,0.26161 -1.20023,0.26425 -1.20106,0.26726 -1.201805,0.27063 -1.202458,0.27435 -1.203018,0.27844 -1.203481,0.2829 -1.203837,0.28772 -1.204073,0.29299 -1.20417,0.29872 -1.204118,0.30493 -1.203914,0.31162 -1.202712,0.32081 -1.200975,0.33004 -1.199309,0.33786 -1.19749,0.34603 -1.195511,0.35453 -1.193366,0.36338 -1.191043,0.37257 -1.18854,0.38209 -1.185843,0.39195 -1.182948,0.40213 -1.179843,0.41264 -1.17652,0.42347 -1.172971,0.43462 -1.169185,0.44609 -1.165153,0.45786 -1.160864,0.46994 -1.156308,0.48232 -1.151477,0.49498 -1.146358,0.50795 -1.140941,0.52118 -1.135215,0.53469 -1.129169,0.54847 -1.122792,0.5625 -1.116074,0.57679 -1.109003,0.59132 -1.101565,0.60608 -1.093752,0.62107 -1.085536,0.63628 -1.076858,0.65182 -1.067703,0.66764 -1.058055,0.68372 -1.047464,0.70056 -1.034404,0.71959 -1.022323,0.7358 -1.009772,0.75212 -0.996743,0.7685 -0.983224,0.78493 -0.969204,0.80141 -0.954678,0.8179 -0.939632,0.8344 -0.92406,0.8509 -0.907953,0.86734 -0.891302,0.88376 -0.8741,0.90008 -0.856341,0.91633 -0.838017,0.93245 -0.819121,0.94844 -0.799651,0.96428 -0.779598,0.97994 -0.758961,0.99538 -0.737734,1.01061 -0.715917,1.02559 -0.693506,1.04027 -0.6705,1.05467 -0.6469,1.06874 -0.622705,1.08244 -0.597917,1.09577 -0.572539,1.10869 -0.54656,1.12118 -0.519932,1.13323 -0.492621,1.14483 -0.464636,1.15594 -0.435978,1.16653 -0.403601,1.17719 -0.37247,1.186 -0.341615,1.19373 -0.310286,1.20074 -0.278496,1.20702 -0.246263,1.21251 -0.213608,1.2172 -0.180549,1.22107 -0.14711,1.22407 -0.113314,1.2262 -0.07918,1.2274 -0.04475,1.22768 -0.01003,1.227 0.02494,1.22531 0.06012,1.22264 0.0955,1.21891 0.131025,1.21414 0.166673,1.20828 0.202403,1.20134 0.238179,1.19326 0.273961,1.18406 0.309709,1.17371 0.34538,1.16218 0.380933,1.14948 0.416321,1.13559 0.451501,1.12048 0.486428,1.10418 0.521074,1.08663 0.555452,1.06782 0.589512,1.04773 0.623193,1.02634 0.65763,1.00262 0.691985,0.97667 0.72353,0.95053 0.754328,0.92318 0.784326,0.89466 0.813467,0.86496 0.8417,0.8341 0.868968,0.80214 0.895218,0.76905 0.920398,0.73491 0.944451,0.69971 0.967327,0.66349 0.988973,0.62632 1.009339,0.58819 1.028373,0.54918 1.046027,0.50931 1.062253,0.46864 1.077004,0.4272 1.090237,0.38508 1.101907,0.3423 1.111974,0.29893 1.120399,0.25503 1.127145,0.21068 1.132178,0.1659 1.135465,0.12081 1.136979,0.0755 1.136691,0.0299 1.134581,-0.0158 1.130623,-0.0615 1.124793,-0.1073 1.117068,-0.15307 1.10741,-0.19876 1.094539,-0.24793 1.08,-0.29284 1.063551,-0.33721 1.045202,-0.38095 1.024972,-0.42395 1.002878,-0.46615 0.978945,-0.50746 0.953202,-0.54777 0.925683,-0.58701 0.896426,-0.62508 0.865473,-0.66192 0.83287,-0.69742 0.798671,-0.73151 0.762931,-0.7641 0.725709,-0.79511 0.687073,-0.82448 0.64709,-0.85212 0.605837,-0.87796 0.563388,-0.90193 0.519828,-0.92398 0.475243,-0.94402 0.429721,-0.96201 0.383357,-0.97791 0.336248,-0.99163 0.288494,-1.00317 0.240199,-1.01246 0.191486,-1.01946 0.142448,-1.02417 0.09313,-1.02654 0.04365,-1.02656 -0.0059,-1.02421 -0.05782,-1.01904 -0.108547,-1.01099 -0.157366,-1.00043 -0.205598,-0.9875 -0.253124,-0.9722 -0.299821,-0.95458 -0.345568,-0.93466 -0.39025,-0.91248 -0.433744,-0.88812 -0.47594,-0.86161 -0.516722,-0.83301 -0.555981,-0.8024 -0.59361,-0.76987 -0.629505,-0.73546 -0.663567,-0.69931 -0.695701,-0.66146 -0.725818,-0.62206 -0.753829,-0.58118 -0.779657,-0.53893 -0.803226,-0.49545 -0.824469,-0.45084 -0.843321,-0.40522 -0.859729,-0.35873 -0.873643,-0.31149 -0.885023,-0.26365 -0.893832,-0.21531 -0.900045,-0.16667 -0.903632,-0.11789 -0.904606,-0.069 -0.902954,-0.0202 -0.898675,0.0284 -0.891581,0.0777 -0.881184,0.12846 -0.868182,0.17555 -0.852648,0.22173 -0.834635,0.26686 -0.814205,0.31082 -0.791429,0.35345 -0.766384,0.39464 -0.739155,0.43426 -0.709836,0.47217 -0.678527,0.50829 -0.645333,0.54247 -0.610371,0.57463 -0.573758,0.60467 -0.53562,0.6325 -0.496088,0.65803 -0.455299,0.68119 -0.413392,0.7019 -0.370512,0.72013 -0.326806,0.73581 -0.282426,0.74889 -0.237525,0.75935 -0.192257,0.76717 -0.14678,0.77234 -0.10125,0.77483 -0.05583,0.77467 -0.01066,0.77188 0.03398,0.76645 0.07801,0.75847 0.121348,0.74796 0.163842,0.73496 0.205346,0.71954 0.248887,0.70036 0.288319,0.67937 0.32571,0.65634 0.361467,0.63124 0.395468,0.60418 0.427606,0.57528 0.457777,0.54467 0.485885,0.51246 0.511845,0.47881 0.53558,0.44384 0.557018,0.40771 0.576105,0.37055 0.592787,0.33253 0.607027,0.29381 0.618795,0.25451 0.628072,0.21483 0.634847,0.17492 0.639125,0.13491 0.640914,0.095 0.640239,0.0553 0.637131,0.016 0.631637,-0.0227 0.623809,-0.0607 0.613717,-0.0979 0.601443,-0.13396 0.587092,-0.16888 0.570676,-0.20272 0.552111,-0.23574 0.531651,-0.26726 0.509406,-0.29722 0.485491,-0.32546 0.458808,-0.35328 0.430309,-0.37914 0.401599,-0.40138 0.371784,-0.42156 0.341013,-0.43961 0.309428,-0.45551 0.277182,-0.4692 0.24442,-0.48067 0.211294,-0.48993 0.177952,-0.49695 0.144541,-0.50175 0.111208,-0.50434 0.0781,-0.50476 0.04534,-0.50303 0.01309,-0.49921 -0.01853,-0.49336 -0.04939,-0.48551 -0.07937,-0.47576 -0.108342,-0.46419 -0.13621,-0.45086 -0.162862,-0.43589 -0.188203,-0.41935 -0.212141,-0.40138 -0.234595,-0.38205 -0.255492,-0.3615 -0.274764,-0.33984 -0.292357,-0.31719 -0.30822,-0.29368 -0.322314,-0.26942 -0.33461,-0.24456 -0.345084,-0.21921 -0.353808,-0.19328 -0.361457,-0.16516 -0.366033,-0.13887 -0.368761,-0.11267 -0.369669,-0.0867 -0.368794,-0.061 -0.366178,-0.0358 -0.361876,-0.0111 -0.355946,0.0129 -0.348457,0.0361 -0.339483,0.0584 -0.329104,0.0798 -0.317405,0.10004 -0.304479,0.11919 -0.290423,0.13712 -0.275336,0.15377 -0.259323,0.16908 -0.242493,0.18302 -0.224955,0.19551 -0.20682,0.20654 -0.188202,0.2161 -0.169218,0.22414 -0.149978,0.23067 -0.130598,0.2357 -0.111192,0.23922 -0.09187,0.24126 -0.07274,0.24183 -0.05391,0.24098 -0.03548,0.23874 -0.01756,0.23516 -2.3e-4,0.2303 0.01641,0.22421 0.03331,0.21665 0.04874,0.20814 0.06288,0.19853 0.07601,0.188 0.08806,0.17663 0.09898,0.1645 0.108725,0.15174 0.117265,0.13841 0.124566,0.12464 0.130606,0.11052 0.135375,0.0962 0.138865,0.0817 0.141078,0.0671 0.142027,0.0526 0.14173,0.0383 0.140209,0.0243 0.137503,0.0106 0.133649,-0.003 0.128693,-0.0153 0.122693,-0.0274 0.115705,-0.0387 0.107798,-0.0493 0.09904,-0.059 0.08951,-0.0678 0.07929,-0.0756 0.06847,-0.0824 0.05712,-0.0882 0.04535,-0.0928 0.03324,-0.0963 0.0209,-0.0987 0.0084,-0.0999 -0.0014,-0.0673 v 0 l -0.0022,0.0672 -0.0114,0.0996 -0.02143,0.0986 -0.03215,0.0967 -0.04316,0.0939 -0.0542,0.09 -0.06508,0.0851 -0.07567,0.0793 -0.08583,0.0724 -0.09547,0.0646 -0.104509,0.0559 -0.112852,0.0464 -0.120428,0.036 -0.127169,0.025 -0.133015,0.0133 -0.137908,9.5e-4 -0.141803,-0.0119 -0.144655,-0.0251 -0.146428,-0.0388 -0.147092,-0.0526 -0.146625,-0.0667 -0.145011,-0.0809 -0.142238,-0.0951 -0.138303,-0.10919 -0.13321,-0.12314 -0.126969,-0.13684 -0.119589,-0.15019 -0.11106,-0.16314 -0.101452,-0.17558 -0.0908,-0.18742 -0.07915,-0.19858 -0.06773,-0.20847 -0.05726,-0.2174 -0.04307,-0.22623 -0.02809,-0.23414 -0.01239,-0.24105 0.004,-0.2469 0.02094,-0.25167 0.03841,-0.25528 0.05632,-0.25772 0.07458,-0.25893 0.09312,-0.25891 0.111841,-0.25761 0.130667,-0.25504 0.149508,-0.25116 0.168278,-0.24599 0.186888,-0.23952 0.205252,-0.23175 0.223284,-0.22271 0.240898,-0.21241 0.258009,-0.20086 0.274535,-0.1881 0.290398,-0.17418 0.305517,-0.15912 0.31982,-0.14297 0.333234,-0.12577 0.345689,-0.1076 0.357122,-0.0885 0.367478,-0.0685 0.376688,-0.0477 0.384702,-0.0262 0.391472,-0.004 0.396961,0.0187 0.401341,0.0382 0.4042,0.0613 0.405623,0.0851 0.405669,0.10913 0.404317,0.13331 0.401556,0.15759 0.397382,0.18187 0.39179,0.20605 0.384785,0.23009 0.376377,0.25386 0.366575,0.27731 0.355401,0.30035 0.342876,0.32291 0.329026,0.34488 0.313886,0.36624 0.297488,0.38686 0.279873,0.40671 0.261087,0.42569 0.241175,0.44378 0.220188,0.46086 0.198182,0.47692 0.175212,0.49188 0.151341,0.50568 0.126629,0.51831 0.101143,0.52968 0.07495,0.53978 0.04811,0.54856 0.02069,0.55598 -0.0072,0.56204 -0.03546,0.56669 -0.06404,0.56992 -0.09077,0.5719 -0.117731,0.57251 -0.146609,0.57126 -0.175507,0.56858 -0.204357,0.56447 -0.233086,0.55897 -0.261625,0.55204 -0.289901,0.54372 -0.31785,0.53404 -0.345403,0.52299 -0.372495,0.51061 -0.399064,0.49694 -0.425046,0.48197 -0.450383,0.46578 -0.475019,0.44837 -0.498896,0.4298 -0.521964,0.4101 -0.544171,0.38931 -0.565471,0.36749 -0.585817,0.34466 -0.605171,0.3209 -0.623488,0.29624 -0.640737,0.27073 -0.656881,0.24444 -0.67189,0.21741 -0.685737,0.1897 -0.698397,0.16136 -0.709851,0.13245 -0.720067,0.10306 -0.729038,0.0733 -0.736755,0.0432 -0.743148,0.0133 -0.74814,-0.0138 -0.751687,-0.0445 -0.753991,-0.0753 -0.755051,-0.10612 -0.754878,-0.13701 -0.753476,-0.16785 -0.750857,-0.19861 -0.747034,-0.22926 -0.74202,-0.25971 -0.735833,-0.28995 -0.728491,-0.3199 -0.720014,-0.34954 -0.710425,-0.37882 -0.699746,-0.4077 -0.688005,-0.43614 -0.675227,-0.46409 -0.66144,-0.49153 -0.646674,-0.51842 -0.630959,-0.54472 -0.614326,-0.5704 -0.596808,-0.59544 -0.578438,-0.61981 -0.559251,-0.64347 -0.53928,-0.66641 -0.51856,-0.68861 -0.497127,-0.71004 -0.475019,-0.73068 -0.452304,-0.7505 -0.429051,-0.76947 -0.405299,-0.78758 -0.381092,-0.80484 -0.359108,-0.81975 -0.33492,-0.83442 -0.309444,-0.84851 -0.283631,-0.86176 -0.25752,-0.87415 -0.23114,-0.88568 -0.204527,-0.89636 -0.177715,-0.9062 -0.150733,-0.91518 -0.123615,-0.92333 -0.09639,-0.93065 -0.06909,-0.93714 -0.04174,-0.94282 -0.01437,-0.94768 0.01299,-0.95177 0.04031,-0.95506 0.06758,-0.95758 0.09476,-0.95936 0.121827,-0.96039 0.148765,-0.96069 0.17555,-0.96029 0.20216,-0.95919 0.228575,-0.95741 0.254778,-0.95497 0.280748,-0.9519 0.30647,-0.9482 0.331924,-0.94389 0.357071,-0.93902 0.381842,-0.93361 0.406224,-0.92769 0.430205,-0.9213 0.452389,-0.91495 0.473051,-0.90843 0.495398,-0.90018 0.517367,-0.89151 0.53895,-0.88247 0.560142,-0.87305 0.58094,-0.86329 0.601337,-0.85321 0.621333,-0.84282 0.640922,-0.83215 0.660105,-0.82122 0.67888,-0.81003 0.697247,-0.79862 0.715204,-0.787 0.732755,-0.77519 0.749898,-0.76321 0.766638,-0.75107 0.782974,-0.73879 0.798912,-0.72639 0.814454,-0.7139 0.829603,-0.7013 0.844364,-0.68865 0.858741,-0.67592 0.872741,-0.66317 0.886366,-0.65039 0.899623,-0.63758 0.91252,-0.6248 0.925048,-0.61204 0.937179,-0.59938 0.948914,-0.58687 0.960264,-0.5745 0.971239,-0.5623 0.979538,-0.5535 0.989027,-0.54139 0.998229,-0.52935 1.007136,-0.51746 1.015755,-0.50573 1.024094,-0.49416 1.03216,-0.48276 1.039963,-0.47155 1.047509,-0.46052 1.054807,-0.44968 1.061866,-0.43907 1.068692,-0.42865 1.075292,-0.41847 1.081678,-0.4085 1.087852,-0.39878 1.093826,-0.38928 1.099606,-0.38005 1.105197,-0.37106 1.11061,-0.36233 1.115849,-0.35387 1.120921,-0.34567 1.125835,-0.33775 1.130596,-0.3301 1.135208,-0.32275 1.139681,-0.31568 1.144017,-0.30889 1.148222,-0.30244 1.152284,-0.29633 1.156202,-0.29065 1.159979,-0.28539 1.163622,-0.28055 1.166288,-0.27839 1.168606,-0.27585 1.171,-0.27209 1.17328,-0.26866 1.17549,-0.26556 1.1776,-0.26281 1.17963,-0.26041 1.18159,-0.25833 1.18345,-0.2566 1.18525,-0.25523 1.18697,-0.2542 1.1886,-0.25351 1.19017,-0.25319 1.19166,-0.25321 1.19308,-0.25359 1.19441,-0.25432 1.19567,-0.25541 1.19686,-0.25685 1.19797,-0.25866 1.19899,-0.26083 1.19994,-0.26335 1.20079,-0.26624 1.20157,-0.26948 1.20226,-0.27309 1.20284,-0.27707 1.20334,-0.2814 1.20374,-0.28609 1.20401,-0.2912 1.20416,-0.29678 1.20415,-0.30283 1.204,-0.30937 1.20335,-0.31719 1.20149,-0.32755 1.19988,-0.33526 1.1981,-0.3433 1.19618,-0.35171 1.19409,-0.36044 1.19182,-0.36952 1.18939,-0.37893 1.18674,-0.38868 1.18392,-0.39875 1.18089,-0.40916 1.17763,-0.41988 1.17416,-0.43094 1.17046,-0.44229 1.1665,-0.45397 1.1623,-0.46595 1.15783,-0.47823 1.15309,-0.4908 1.14807,-0.50366 1.14275,-0.51681 1.13713,-0.53024 1.13118,-0.54392 1.12492,-0.55788 1.11832,-0.57208 1.11136,-0.58653 1.10404,-0.60122 1.09636,-0.61613 1.08827,-0.63128 1.07974,-0.64671 1.07075,-0.66243 1.06126,-0.67844 1.05128,-0.69471 1.03853,-0.71372 1.02633,-0.7305 1.01392,-0.74678 1.00106,-0.76313 0.9877,-0.77956 0.97384,-0.79601 0.95948,-0.81251 0.94461,-0.82901 0.92921,-0.84551 0.91328,-0.86197 0.8968,-0.8784 0.87979,-0.89475 0.86221,-0.91103 0.84407,-0.9272 0.82536,-0.94323 0.80608,-0.95912 0.78622,-0.97484 0.76577,-0.99036 0.74474,-1.00566 0.72312,-1.02071 0.7009,-1.03551 0.67808,-1.05 0.65469,-1.06417 0.63068,-1.078 0.60608,-1.09146 0.58091,-1.10451 0.55512,-1.11714 0.52871,-1.12934 0.50163,-1.14109 0.47386,-1.15236 0.44543,-1.16313 0.41455,-1.1737 0.38246,-1.18332 0.35177,-1.19128 0.32058,-1.19853 0.28895,-1.20505 0.25686,-1.2108 0.22434,-1.21576 0.19141,-1.21989 0.15809,-1.22319 0.12441,-1.2256 0.0904,-1.22711 0.056,-1.227695 0.0214,-1.227325 -0.0135,-1.225977 -0.0486,-1.223624 -0.0839,-1.220247 -0.11939,-1.215818 -0.15499,-1.21032 -0.19071,-1.203729 -0.22647,-1.196029 -0.26225,-1.187198 -0.29802,-1.177221 -0.33372,-1.166083 -0.36931,-1.153768 -0.40477,-1.140264 -0.44001,-1.125561 -0.47503,-1.109648 -0.50976,-1.092516 -0.54423,-1.074121 -0.5784,-1.054447 -0.61221,-1.033485 -0.64581,-1.011046 -0.68151,-0.98496 -0.71329,-0.959212 -0.74434,-0.932259 -0.7746,-0.904117 -0.80404,-0.874799 -0.83256,-0.844326 -0.86016,-0.812716 -0.88675,-0.779997 -0.91228,-0.746194 -0.93671,-0.711335 -0.95997,-0.675454 -0.98203,-0.638585 -1.00283,-0.600766 -1.02229,-0.562038 -1.04041,-0.522442 -1.0571,-0.482027 -1.07235,-0.440841 -1.08607,-0.398933 -1.09827,-0.356362 -1.10886,-0.313179 -1.11782,-0.26945 -1.12513,-0.225232 -1.13072,-0.180592 -1.13459,-0.135597 -1.13668,-0.09032 -1.13698,-0.04482 -1.13547,8.1e-4 -1.13213,0.04654 -1.12691,0.09233 -1.1198,0.138116 -1.11079,0.183802 -1.09898,0.231901 -1.08496,0.278203 -1.06915,0.322758 -1.05141,0.366709 -1.0318,0.409966 -1.01031,0.45244 -0.98698,0.494045 -0.96182,0.534691 -0.93488,0.574293 -0.90619,0.61276 -0.87578,0.65001 -0.84372,0.685956 -0.81004,0.720514 -0.77479,0.753603 -0.73804,0.785144 -0.69987,0.815058 -0.66032,0.843269 -0.61947,0.869705 -0.5774,0.894298 -0.5342,0.916978 -0.48994,0.937684 -0.44472,0.956356 -0.39861,0.972941 -0.35174,0.987383 -0.30418,0.999639 -0.25606,1.009666 -0.20746,1.017426 -0.15854,1.022881 -0.10929,1.026022 -0.0599,1.026817 -0.0103,1.025241 0.0403,1.021085 0.0925,1.013916 0.14144,1.004149 0.18989,0.991994 0.23765,0.977467 0.28463,0.960601 0.33071,0.941428 0.37575,0.919989 0.41964,0.896334 0.46228,0.870516 0.50354,0.842595 0.5433,0.81264 0.58148,0.780723 0.61795,0.746924 0.65263,0.711329 0.6854,0.67403 0.71618,0.635128 0.7449,0.59471 0.77145,0.5529 0.79576,0.50982 0.81778,0.46555 0.83741,0.42026 0.85464,0.37404 0.86936,0.32702 0.88158,0.27937 0.89123,0.23117 0.8983,0.18262 0.90275,0.13386 0.90457,0.085 0.90379,0.0362 0.90036,-0.0126 0.89432,-0.061 0.88488,-0.11256 0.87272,-0.16024 0.85801,-0.20673 0.84079,-0.25222 0.82116,-0.29658 0.79913,-0.33966 0.77482,-0.38133 0.7483,-0.42148 0.71965,-0.45996 0.68898,-0.49668 0.6564,-0.5315 0.62199,-0.56434 0.58591,-0.595088 0.54826,-0.623644 0.50917,-0.649934 0.46877,-0.673876 0.42722,-0.6954 0.38464,-0.714446 0.34118,-0.73096 0.29701,-0.744896 0.25227,-0.75622 0.20709,-0.764908 0.16167,-0.770939 0.11615,-0.774309 0.0707,-0.775018 0.0254,-0.773079 -0.0194,-0.768513 -0.0637,-0.761364 -0.10725,-0.751674 -0.15005,-0.739483 -0.19188,-0.724849 -0.23461,-0.706978 -0.27575,-0.68644 -0.31365,-0.664106 -0.34996,-0.639671 -0.38454,-0.613242 -0.4173,-0.584933 -0.44813,-0.554865 -0.47692,-0.523167 -0.5036,-0.489971 -0.52806,-0.455418 -0.55026,-0.419649 -0.57012,-0.382813 -0.5876,-0.345059 -0.60264,-0.306544 -0.61521,-0.267421 -0.62532,-0.227851 -0.6329,-0.187989 -0.638,-0.147999 -0.6406,-0.108037 -0.64073,-0.06826 -0.63842,-0.02884 -0.63369,0.01009 -0.62662,0.04835 -0.61727,0.0858 -0.60569,0.12227 -0.59201,0.157597 -0.57633,0.191595 -0.55841,0.225066 -0.53856,0.257097 -0.51689,0.287574 -0.4935,0.316393 -0.46816,0.343884 -0.43945,0.371403 -0.41114,0.394314 -0.38167,0.415175 -0.35119,0.433928 -0.31986,0.450532 -0.28782,0.46495 -0.2552,0.477157 -0.22219,0.487138 -0.18889,0.49489 -0.15549,0.500415 -0.12212,0.503729 -0.0889,0.504856 -0.056,0.503829 -0.0236,0.50069 0.008,0.495491 0.0394,0.488293 0.0696,0.479162 0.099,0.468175 0.1272,0.455413 0.15426,0.440969 0.18005,0.424937 0.20445,0.407419 0.2274,0.388524 0.24882,0.368364 0.26863,0.347053 0.28677,0.324714 0.30321,0.30147 0.31789,0.277444 0.33078,0.252766 0.34185,0.227564 0.35109,0.201967 0.35922,0.174242 0.36473,0.14749 0.36807,0.121245 0.36956,0.09516 0.36927,0.06937 0.36722,0.04399 0.36347,0.01913 0.35806,-0.0051 0.35108,-0.02856 0.34258,-0.05118 0.33265,-0.07286 0.32138,-0.09351 0.30884,-0.113039 0.29515,-0.131376 0.28038,-0.148455 0.26467,-0.164213 0.24809,-0.178599 0.23077,-0.19157 0.21283,-0.203088 0.19435,-0.213126 0.17547,-0.221667 0.1563,-0.228696 0.13696,-0.234214 0.11755,-0.238228 0.0982,-0.240747 0.079,-0.2418 0.06,-0.241411 0.0415,-0.239622 0.0234,-0.236478 0.006,-0.232028 -0.011,-0.226335 -0.0278,-0.219231 -0.0439,-0.211069 -0.0584,-0.201787 -0.0718,-0.191548 -0.0842,-0.180438 -0.0955,-0.168552 -0.10566,-0.155983 -0.1146,-0.14283 -0.12231,-0.129196 -0.12876,-0.11518 -0.13395,-0.100887 -0.13786,-0.08642 -0.14049,-0.07188 -0.14186,-0.05738 -0.14196,-0.043 -0.14083,-0.02886 -0.13852,-0.01505 -0.13503,-0.0017 -0.13044,0.01121 -0.12477,0.02348 -0.11809,0.03507 -0.11049,0.04591 -0.102,0.05591 -0.0927,0.06502 -0.0827,0.07318 -0.0721,0.08033 -0.0609,0.08643 -0.0493,0.09143 -0.0372,0.09531 -0.025,0.09804 -0.0125,0.09961 z"
     id="path855"
     inkscape:connector-curvature="0"
     style="fill:none;stroke:#000000" />
</svg>
